# xmcd
#
# Track frame offsets: 
#        150
#        23283
#        82949
#        109503
#        132186
#        152084
#        170870
#        187657
#        206068
#        223835
#        239786
#        338714
#
# Disc length: 4755 seconds
#
# Revision: 1
# Processed by: cddbd v1.5.2PL0 Copyright (c) Steve Scherf et al.
# Submitted via: ExactAudioCopy v1.1
#
DISCID=9e12910c
DTITLE=Charles Wright - Rhythm and Poetry
DYEAR=1972
DGENRE=R&B
TTITLE0=Soul Train
TTITLE1=Run Jody Run
TTITLE2=Good Things
TTITLE3=Here Comes The Sun
TTITLE4=Girl, Don't Let Me Down
TTITLE5=Just Free Your Mind
TTITLE6=Soul Train (single version)
TTITLE7=Run Jody Run (single version)
TTITLE8=You Gotta Know Whatcha Doin'
TTITLE9=Here Comes The Sun (single version)
TTITLE10=Good Things (single version)
TTITLE11=Stand For Something Or Fall For Anything
EXTD=
EXTT0=
EXTT1=
EXTT2=
EXTT3=
EXTT4=
EXTT5=
EXTT6=
EXTT7=
EXTT8=
EXTT9=
EXTT10=
EXTT11=
PLAYORDER=
